<svg viewBox="378.6364 320.5846 380 122.8294" width="5000" height="1616.1763157894736" xmlns="http://www.w3.org/2000/svg" xmlns:xlink="http://www.w3.org/1999/xlink" preserveAspectRatio="none">
  <defs></defs>
  <style>.atBXipXk0bfillColor {fill:#EDE7E7;fill-opacity:0;}.atBXipXk0bstrokeColor-str {stroke:#FB3D28;stroke-opacity:1;}.companyName {fill:#EEEEEE;fill-opacity:1;}.icon3-str {stroke:#76768E;stroke-opacity:1;}</style>
  <g opacity="1" transform="rotate(0 378.6364 320.5846)">
    <svg width="380" height="122.8294" x="378.6364" y="320.5846" version="1.1" preserveAspectRatio="none" viewBox="0 0 380 122.8294">
      <rect x="2.456588" y="2.456588" width="375.086824" height="117.916224" class="atBXipXk0bfillColor atBXipXk0bstrokeColor-str" style="stroke-width:4.913176;" rx="14px" ry="14px" />
    </svg>
  </g>
  <g opacity="1" transform="rotate(0 396.1834 338.1317)">
    <svg width="344.9059" height="87.7353" x="396.1834" y="338.1317" version="1.1" preserveAspectRatio="none" viewBox="4 -31.24 123.44 31.4">
      <g transform="matrix(1 0 0 1 0 0)" class="companyName">
        <path id="id-D6z1nYkh6" d="M24.16-3.84Q25.08-3.84 25.64-3.32Q26.20-2.80 26.20-1.96L26.20-1.96Q26.20-1.08 25.64-0.54Q25.08 0 24.16 0L24.16 0L6.08 0Q5.20 0 4.60-0.60Q4-1.20 4-2.08L4-2.08L4-29.16Q4-30.08 4.60-30.66Q5.20-31.24 6.08-31.24L6.08-31.24L24.16-31.24Q25.08-31.24 25.64-30.70Q26.20-30.16 26.20-29.28L26.20-29.28Q26.20-28.44 25.64-27.92Q25.08-27.40 24.16-27.40L24.16-27.40L8.16-27.40L8.16-17.68L19.64-17.68Q20.52-17.68 21.10-17.14Q21.68-16.60 21.68-15.76L21.68-15.76Q21.68-14.92 21.10-14.38Q20.52-13.84 19.64-13.84L19.64-13.84L8.16-13.84L8.16-3.84L24.16-3.84Z M47-3.08Q47.56-2.48 47.56-1.68L47.56-1.68Q47.56-0.96 47.06-0.48Q46.56 0 45.76 0L45.76 0Q44.80 0 44.32-0.64L44.32-0.64L37.96-8.24L31.92-0.64Q31.32 0 30.48 0L30.48 0Q29.68 0 29.22-0.48Q28.76-0.96 28.76-1.68L28.76-1.68Q28.76-2.48 29.32-3.16L29.32-3.16L35.52-10.92L28.92-18.72Q28.32-19.44 28.32-20.24L28.32-20.24Q28.32-20.92 28.78-21.40Q29.24-21.88 30.08-21.88L30.08-21.88Q31.04-21.88 31.60-21.20L31.60-21.20L38.16-13.36L44.04-21.20Q44.56-21.88 45.52-21.88L45.52-21.88Q46.32-21.88 46.78-21.38Q47.24-20.88 47.24-20.16L47.24-20.16Q47.24-19.28 46.68-18.56L46.68-18.56L40.64-10.68L47-3.08Z M62-4Q62.72-4 63.22-3.44Q63.72-2.88 63.72-2L63.72-2Q63.72-1.12 63.06-0.56Q62.40 0 61.36 0L61.36 0L60.64 0Q58.68 0 57.06-1.02Q55.44-2.04 54.52-3.80Q53.60-5.56 53.60-7.76L53.60-7.76L53.60-17.64L51.76-17.64Q50.92-17.64 50.40-18.12Q49.88-18.60 49.88-19.32L49.88-19.32Q49.88-20.12 50.40-20.60Q50.92-21.08 51.76-21.08L51.76-21.08L53.60-21.08L53.60-26.84Q53.60-27.72 54.16-28.28Q54.72-28.84 55.60-28.84L55.60-28.84Q56.48-28.84 57.04-28.28Q57.60-27.72 57.60-26.84L57.60-26.84L57.60-21.08L61-21.08Q61.84-21.08 62.36-20.60Q62.88-20.12 62.88-19.32L62.88-19.32Q62.88-18.60 62.36-18.12Q61.84-17.64 61-17.64L61-17.64L57.60-17.64L57.60-7.76Q57.60-6.16 58.48-5.08Q59.36-4 60.64-4L60.64-4L62-4Z M78.64-22.04Q81.72-22.04 84.22-20.58Q86.72-19.12 88.18-16.58Q89.64-14.04 89.64-10.92L89.64-10.92L89.64-2Q89.64-1.12 89.06-0.54Q88.48 0.04 87.60 0.04L87.60 0.04Q86.72 0.04 86.14-0.54Q85.56-1.12 85.56-2L85.56-2L85.56-3.48Q84.16-1.76 82.16-0.80Q80.16 0.16 77.84 0.16L77.84 0.16Q74.96 0.16 72.62-1.28Q70.28-2.72 68.94-5.26Q67.60-7.80 67.60-10.92L67.60-10.92Q67.60-14.04 69.04-16.58Q70.48-19.12 73.02-20.58Q75.56-22.04 78.64-22.04L78.64-22.04ZM78.64-3.44Q80.64-3.44 82.26-4.42Q83.88-5.40 84.80-7.10Q85.72-8.80 85.72-10.92L85.72-10.92Q85.72-13.04 84.80-14.76Q83.88-16.48 82.26-17.46Q80.64-18.44 78.64-18.44L78.64-18.44Q76.64-18.44 75.02-17.46Q73.40-16.48 72.46-14.76Q71.52-13.04 71.52-10.92L71.52-10.92Q71.52-8.80 72.46-7.10Q73.40-5.40 75.02-4.42Q76.64-3.44 78.64-3.44L78.64-3.44Z M94.92-29.24Q94.92-30.12 95.48-30.68Q96.04-31.24 96.92-31.24L96.92-31.24Q97.80-31.24 98.36-30.68Q98.92-30.12 98.92-29.24L98.92-29.24L98.92-7.40Q98.92-5.92 99.48-4.96Q100.04-4 100.92-4L100.92-4L101.92-4Q102.72-4 103.22-3.44Q103.72-2.88 103.72-2L103.72-2Q103.72-1.12 102.96-0.56Q102.20 0 101 0L101 0L100.92 0Q99.20 0 97.82-0.94Q96.44-1.88 95.68-3.58Q94.92-5.28 94.92-7.40L94.92-7.40L94.92-29.24Z M116.44-22.04Q119.52-22.04 122.02-20.58Q124.52-19.12 125.98-16.58Q127.44-14.04 127.44-10.92L127.44-10.92L127.44-2Q127.44-1.12 126.86-0.54Q126.28 0.04 125.40 0.04L125.40 0.04Q124.52 0.04 123.94-0.54Q123.36-1.12 123.36-2L123.36-2L123.36-3.48Q121.96-1.76 119.96-0.80Q117.96 0.16 115.64 0.16L115.64 0.16Q112.76 0.16 110.42-1.28Q108.08-2.72 106.74-5.26Q105.40-7.80 105.40-10.92L105.40-10.92Q105.40-14.04 106.84-16.58Q108.28-19.12 110.82-20.58Q113.36-22.04 116.44-22.04L116.44-22.04ZM116.44-3.44Q118.44-3.44 120.06-4.42Q121.68-5.40 122.60-7.10Q123.52-8.80 123.52-10.92L123.52-10.92Q123.52-13.04 122.60-14.76Q121.68-16.48 120.06-17.46Q118.44-18.44 116.44-18.44L116.44-18.44Q114.44-18.44 112.82-17.46Q111.20-16.48 110.26-14.76Q109.32-13.04 109.32-10.92L109.32-10.92Q109.32-8.80 110.26-7.10Q111.20-5.40 112.82-4.42Q114.44-3.44 116.44-3.44L116.44-3.44Z" />
      </g>
    </svg>
  </g>
</svg>